HIERARCHY
ROOT Hips
{
	OFFSET -3.958830 18.904000 13.208200
	CHANNELS 6 Xposition Yposition Zposition Zrotation Yrotation Xrotation 
	JOINT LHipJoint
	{
		OFFSET 0.000000 0.000000 0.000000
		CHANNELS 3 Zrotation Yrotation Xrotation
		JOINT LeftUpLeg
		{
			OFFSET 1.800000 -1.400000 0.085000
			CHANNELS 3 Zrotation Yrotation Xrotation
			JOINT LeftLeg
			{
				OFFSET 2.215000 -6.000000 0.000000
				CHANNELS 3 Zrotation Yrotation Xrotation
				JOINT LeftFoot
				{
					OFFSET 2.500000 -6.900000 0.000000
					CHANNELS 3 Zrotation Yrotation Xrotation
					JOINT LeftToeBase
					{
						OFFSET 0.200000 -0.500000 1.950000
						CHANNELS 3 Zrotation Yrotation Xrotation
						End Site
						{
							OFFSET 0.000000 0.000000 0.000000
						}
					}
				}
			}
		}
	}
	JOINT RHipJoint
	{
		OFFSET 0.000000 0.000000 0.000000
		CHANNELS 3 Zrotation Yrotation Xrotation
		JOINT RightUpLeg
		{
			OFFSET -1.800000 -1.400000 0.085000
			CHANNELS 3 Zrotation Yrotation Xrotation
			JOINT RightLeg
			{
				OFFSET -2.215000 -6.000000 0.000000
				CHANNELS 3 Zrotation Yrotation Xrotation
				JOINT RightFoot
				{
					OFFSET -2.500000 -6.900000 0.000000
					CHANNELS 3 Zrotation Yrotation Xrotation
					JOINT RightToeBase
					{
						OFFSET -0.200000 -0.500000 1.950000
						CHANNELS 3 Zrotation Yrotation Xrotation
						End Site
						{
							OFFSET 0.000000 0.000000 0.000000
						}
					}
				}
			}
		}
	}
	JOINT LowerBack
	{
		OFFSET 0.000000 0.000000 0.000000
		CHANNELS 3 Zrotation Yrotation Xrotation
		JOINT Spine
		{
			OFFSET -0.087000 1.940000 -0.288900
			CHANNELS 3 Zrotation Yrotation Xrotation
			JOINT Spine1
			{
				OFFSET 0.000000 1.950000 0.060000
				CHANNELS 3 Zrotation Yrotation Xrotation
				JOINT Neck
				{
					OFFSET 0.000000 0.000000 0.000000
					CHANNELS 3 Zrotation Yrotation Xrotation
					JOINT Neck1
					{
						OFFSET 0.000000 1.600000 0.340000
						CHANNELS 3 Zrotation Yrotation Xrotation
						JOINT Head
						{
							OFFSET 0.000000 1.667000 -0.240000
							CHANNELS 3 Zrotation Yrotation Xrotation
							End Site
							{
								OFFSET 0.000000 0.000000 0.000000
							}
						}
					}
				}
				JOINT LeftShoulder
				{
					OFFSET 0.000000 0.000000 0.000000
					CHANNELS 3 Zrotation Yrotation Xrotation
					JOINT LeftArm
					{
						OFFSET 2.700000 1.550000 -0.730000
						CHANNELS 3 Zrotation Yrotation Xrotation
						JOINT LeftForeArm
						{
							OFFSET 5.450000 0.000000 0.000000
							CHANNELS 3 Zrotation Yrotation Xrotation
							JOINT LeftHand
							{
								OFFSET 3.450000 0.000000 0.000000
								CHANNELS 3 Zrotation Yrotation Xrotation
								JOINT LeftHandIndex1
								{
									OFFSET 0.750000 0.000000 0.000000
									CHANNELS 3 Zrotation Yrotation Xrotation
									End Site
									{
										OFFSET 0.000000 0.000000 0.000000
									}
								}
							}
						}
					}
				}
				JOINT RightShoulder
				{
					OFFSET 0.000000 0.000000 0.000000
					CHANNELS 3 Zrotation Yrotation Xrotation
					JOINT RightArm
					{
						OFFSET -2.700000 1.550000 -0.730000
						CHANNELS 3 Zrotation Yrotation Xrotation
						JOINT RightForeArm
						{
							OFFSET -5.450000 0.000000 0.000000
							CHANNELS 3 Zrotation Yrotation Xrotation
							JOINT RightHand
							{
								OFFSET -3.450000 0.000000 0.000000
								CHANNELS 3 Zrotation Yrotation Xrotation
								JOINT RightHandIndex1
								{
									OFFSET -0.750000 0.000000 0.000000
									CHANNELS 3 Zrotation Yrotation Xrotation
									End Site
									{
										OFFSET 0.000000 0.000000 0.000000
									}
								}
							}
						}
					}
				}
			}
		}
	}
}
MOTION
Frames: 10
Frame Time: 0.016667
-1.321890 13.862090 -8.671890 -62.899138 28.084967 -71.298626 -16.034670 13.562090 3.968323 -3.045388 -5.318095 -30.129426 -4.553813 14.387342 50.032980 0.533530 9.630225 1.297688 0.053520 -0.223190 -0.126630 17.646746 -8.446237 3.762251 -3.147374 14.451002 -29.730424 -10.819435 -1.304302 73.227891 -1.719692 -10.285395 1.093940 -0.082770 0.523900 0.013370 -1.282331 -6.290871 -8.379005 -2.164443 10.206893 55.079780 5.884575 9.454524 20.815419 5.082821 5.864228 -15.933408 6.707534 -8.875451 45.880268 16.638690 -13.540560 -10.571260 -10.125243 -28.184198 10.830770 -22.664111 -10.539004 1.866675 2.603551 2.371566 -0.889538 -3.906035 2.476225 0.661200 0.041920 -0.120160 0.199220 -1.493233 31.810522 11.768366 -12.822559 -5.925885 -19.887113 -124.886168 3.310103 -23.970585 2.470751 -2.119899 -0.405050 0.535910 0.246000 -0.075670 
-1.353730 13.844090 -8.722520 -63.567373 27.695891 -71.068418 -15.938846 13.231921 3.975651 -4.514377 -5.954024 -31.961317 -2.328913 12.647983 49.122745 0.402813 9.036581 1.476019 0.038460 -0.255290 -0.113430 17.757219 -8.392966 3.987122 -6.698913 14.887874 -32.382118 -1.259949 -8.335674 71.159162 -1.664534 -10.359022 1.036546 -0.117040 0.503790 0.035710 -1.642537 -5.557129 -8.567420 0.480311 8.560916 56.201094 4.060905 9.193103 19.377221 4.995469 5.988176 -16.263816 7.149559 -8.607762 46.483898 16.272610 -13.043510 -9.404930 -10.331294 -28.968353 11.389789 -21.904667 -10.401940 1.939608 2.778208 2.204490 -0.872259 -3.901660 2.494021 0.668260 0.041980 -0.106550 0.181550 -0.946178 32.076824 11.163764 -14.179634 -3.551344 -19.670856 -123.070557 4.637781 -23.873901 2.492718 -2.035765 -0.388750 0.496920 0.250580 -0.087370 
-1.378020 13.816200 -8.757470 -62.799560 29.133764 -68.946031 -15.943870 12.860967 4.227177 -7.809944 -7.496660 -34.334499 -1.053054 11.049592 46.624584 0.313860 8.154167 1.782001 0.019700 -0.208440 -0.194490 17.789212 -8.253074 4.063162 -11.436798 13.983021 -35.089464 6.937238 -12.306495 64.452763 -1.460148 -9.998985 1.140179 -0.102690 0.553680 0.015390 -1.660137 -5.336314 -8.652718 -0.679024 9.455517 54.661504 4.274081 9.596790 18.838677 4.641974 6.218291 -16.269361 7.977306 -8.067337 45.365687 17.026090 -12.803750 -6.394470 -10.359564 -29.198732 11.358790 -21.603256 -11.424601 2.205985 2.784104 2.591763 -0.754977 -3.939892 2.542615 0.561710 0.094010 -0.148930 0.216920 -0.198931 32.311637 10.992511 -15.345734 -2.574986 -19.172455 -122.361265 4.593633 -22.459890 2.529004 -2.041434 -0.357460 0.482000 0.232600 -0.029760 
-1.367420 13.742330 -8.794880 -60.435659 29.126424 -66.453678 -15.896457 12.532496 4.302315 -9.931961 -8.063785 -35.649681 -0.529364 9.597071 42.056031 0.068418 7.090040 2.157081 -0.049430 -0.275380 -0.292980 17.862643 -8.176733 4.244219 -14.647963 13.585397 -37.120686 13.641606 -13.881783 56.789668 -1.213722 -9.387953 1.308439 -0.109550 0.652490 0.002450 -1.866747 -4.740375 -8.736121 -0.379873 9.640280 53.325646 2.835909 10.137824 18.552638 4.693430 5.692252 -16.027578 7.302902 -7.283269 44.152320 17.693070 -13.084970 -4.203410 -10.922925 -28.831372 10.912311 -21.514760 -12.016079 2.247279 3.347952 2.698457 -0.779553 -4.026198 2.550068 0.511850 0.155610 -0.232900 0.223280 0.296602 32.520890 10.809610 -15.901724 -1.038656 -18.883507 -122.126384 4.184894 -21.212878 2.530088 -2.024477 -0.400130 0.506270 0.291890 -0.006710 
-1.369470 13.662320 -8.843840 -57.692965 28.938164 -64.105423 -15.861880 12.353773 4.343535 -9.916107 -8.254139 -36.468519 -3.540046 9.201233 35.419632 -0.154332 6.013569 2.575859 -0.092320 -0.311240 -0.370100 17.899360 -8.156080 4.348681 -16.503454 13.160334 -38.636000 17.122632 -12.996851 49.326559 -0.917904 -8.383345 1.624179 -0.101270 0.754650 -0.016490 -1.992843 -4.346377 -8.736671 -0.599637 10.149720 52.422040 1.774398 10.786863 18.537429 4.899849 4.749481 -15.603531 5.812001 -6.861039 42.170882 17.840670 -13.522440 -3.264870 -11.609905 -28.357902 10.343480 -21.263599 -12.692659 2.246636 3.747472 2.949068 -0.801582 -4.092503 2.539177 0.462130 0.206550 -0.301160 0.260360 0.593131 33.242632 10.600907 -17.031187 0.464641 -19.020386 -121.528573 3.066299 -19.025518 2.563463 -2.027861 -0.442160 0.560300 0.316880 0.029280 
-1.379660 13.551160 -8.869460 -55.852054 28.272224 -62.040011 -15.795086 12.162398 4.386439 -10.222223 -8.355553 -36.707083 -6.636733 7.973030 26.734230 -0.355976 4.581698 3.148696 -0.088190 -0.277480 -0.387230 17.951733 -8.257305 4.402423 -16.375850 12.521744 -39.808773 18.898409 -10.966887 41.178267 -0.604733 -7.023116 2.088316 -0.078580 0.794830 -0.058320 -2.223954 -3.687957 -8.754103 0.750253 9.646217 50.925240 0.212704 11.131293 18.744381 5.280478 3.585717 -15.738119 3.830705 -7.016587 41.021795 16.104000 -13.840420 -1.692300 -10.829081 -27.898447 9.857527 -22.136667 -13.861470 2.459778 3.726757 3.254991 -0.698135 -4.090864 2.531337 0.399850 0.226800 -0.327070 0.317710 -0.808809 33.823564 10.939253 -15.893668 1.123325 -19.389441 -121.420364 0.679767 -16.766505 2.648151 -2.128643 -0.452690 0.600040 0.263640 0.071190 
-1.381680 13.421800 -8.879570 -53.836766 28.708537 -59.506021 -15.760231 11.925825 4.620062 -12.002817 -9.222088 -37.816907 -7.003448 6.646011 21.598001 -0.480949 3.698957 3.496333 -0.103770 -0.295460 -0.416730 17.984157 -8.371669 4.259972 -15.849292 10.744258 -39.864839 19.844027 -8.441434 30.966698 -0.249328 -5.404867 2.623914 -0.082660 0.836820 -0.043830 -2.347327 -3.205302 -8.745894 0.610032 9.389467 48.657981 -0.730383 11.020634 19.145107 5.445238 2.070160 -15.467328 1.407472 -6.921046 39.314272 14.835560 -14.133010 -0.778910 -9.277310 -26.776944 9.415829 -23.984196 -14.759723 2.741675 3.734910 2.375091 -0.678102 -4.113274 2.588552 0.338990 0.258810 -0.368180 0.329460 -2.493305 33.955167 10.840257 -15.969740 2.856343 -19.289557 -121.750191 -1.013488 -14.731983 2.683038 -2.178416 -0.441490 0.590740 0.273870 0.098780 
-1.341220 13.280330 -8.893010 -52.027015 28.973583 -57.543642 -15.720647 11.635112 4.716952 -14.252706 -9.802879 -37.815437 -5.220624 5.184646 17.385494 -0.613904 2.906190 3.826474 -0.124900 -0.314710 -0.440030 18.031499 -8.388517 4.264731 -17.589602 9.462717 -38.540582 23.976366 -7.069507 21.845825 -0.124596 -4.753721 2.860156 -0.081200 0.875000 -0.056760 -2.522272 -2.650441 -8.874356 1.637598 8.845700 46.687806 -2.395268 11.183536 19.049729 5.863419 1.432860 -15.640103 0.306298 -6.845420 39.450332 12.937620 -14.090520 1.463550 -9.800897 -26.645664 9.105457 -24.506892 -15.328026 2.851350 3.989208 2.765975 -0.638354 -4.142443 2.579838 0.310330 0.292000 -0.400250 0.349040 -2.659436 34.266010 11.016971 -15.709995 3.499602 -18.846883 -121.660027 -1.391028 -14.049883 2.712141 -2.194207 -0.464670 0.604540 0.270030 0.111260 
-1.279650 13.143830 -8.934320 -50.293209 28.489992 -56.227888 -15.603499 11.339246 4.664106 -14.473548 -9.826517 -37.898756 -4.721401 4.551706 15.012435 -0.712538 2.643716 3.923926 -0.171880 -0.413820 -0.452040 18.137184 -8.494561 4.332785 -18.818222 9.071993 -35.992730 27.233401 -5.551404 14.565937 -0.103169 -4.480906 2.931009 -0.124350 0.902340 -0.023660 -2.953617 -1.755270 -9.047551 4.516164 7.279897 45.917839 -5.606155 10.986790 19.083432 6.351540 0.712563 -15.908987 -0.991680 -6.264780 40.286980 13.016270 -14.261130 1.972890 -9.977643 -26.685577 9.037585 -24.867256 -15.109894 2.786918 4.067296 2.585084 -0.737409 -4.196194 2.561412 0.340000 0.305600 -0.420210 0.309360 -3.329159 34.332797 10.960322 -15.133295 4.846050 -18.476236 -122.323125 -1.539526 -14.044096 2.713573 -2.154187 -0.485600 0.602120 0.343250 0.087280 
-1.165800 12.994520 -9.025290 -47.891007 27.262131 -55.368541 -15.396150 10.980382 4.447745 -13.925683 -9.413293 -37.333670 -4.305569 4.087760 13.208038 -0.758156 2.438519 3.991328 -0.221430 -0.482100 -0.482800 18.326695 -8.592768 4.576394 -20.759999 9.277380 -32.708886 30.379517 -3.331160 6.837440 -0.164469 -4.458306 2.918548 -0.168580 0.905750 -0.024550 -3.676651 -0.549690 -9.307513 9.482514 4.610622 46.609743 -10.580223 10.312627 18.779798 6.978517 -0.921726 -16.455896 -4.419482 -4.916104 42.440080 14.044540 -14.833060 2.168690 -11.493411 -27.202244 9.229153 -24.326358 -13.785396 2.339648 3.913681 2.109474 -0.815142 -4.183910 2.525117 0.375150 0.283460 -0.417410 0.272110 -2.860892 35.147739 10.771842 -15.741086 5.989149 -18.093964 -122.679558 -1.209673 -13.889468 2.767838 -2.085937 -0.495530 0.606960 0.400300 0.082970 
